<?xml version="1.0" standalone="no"?>
<!DOCTYPE svg PUBLIC "-//W3C//DTD SVG 20010904//EN"
 "http://www.w3.org/TR/2001/REC-SVG-20010904/DTD/svg10.dtd">
<svg version="1.0" xmlns="http://www.w3.org/2000/svg"
 width="32.000000pt" height="32.000000pt" viewBox="0 0 32.000000 32.000000"
 preserveAspectRatio="xMidYMid meet">

<g transform="translate(0.000000,32.000000) scale(0.100000,-0.100000)"
fill="white" stroke="none">
<path d="M7 287 c4 -8 22 -26 40 -41 32 -27 36 -59 7 -70 -10 -4 -14 -24 -14
-71 0 -60 2 -66 25 -77 19 -8 28 -9 37 0 8 8 17 8 30 1 13 -7 29 -7 48 0 21 7
30 6 33 -2 3 -9 12 -9 33 -2 27 10 29 14 32 75 2 46 -1 67 -11 75 -28 21 -24
40 17 84 42 45 36 46 -22 4 -38 -28 -58 -25 -72 12 -13 34 -57 35 -70 1 -13
-34 -24 -38 -51 -17 -13 10 -35 24 -47 30 -20 11 -23 11 -15 -2z m166 -4 c-7
-2 -21 -2 -30 0 -10 3 -4 5 12 5 17 0 24 -2 18 -5z m-43 -87 c0 -7 -7 -13 -15
-13 -8 0 -13 3 -10 6 3 2 -12 22 -32 44 l-38 39 48 -32 c26 -17 47 -37 47 -44z
m112 31 c-18 -18 -29 -37 -25 -41 4 -4 0 -4 -8 -1 -9 3 -16 19 -17 36 0 16 4
27 9 23 5 -3 7 -10 4 -15 -11 -16 12 -10 36 11 36 30 37 24 1 -13z m-112 7 c0
-8 -5 -12 -10 -9 -6 4 -8 11 -5 16 9 14 15 11 15 -7z m-40 -46 c0 -19 -18 -44
-25 -36 -4 3 0 15 7 27 15 24 18 26 18 9z m164 -40 c-5 -8 -10 -6 -15 8 -14
35 -10 50 7 26 8 -12 12 -27 8 -34z m-114 7 c11 -13 8 -15 -19 -15 -21 0 -31
5 -31 15 0 8 8 15 19 15 10 0 24 -7 31 -15z m88 -2 c2 -9 -7 -13 -28 -13 -28
0 -31 2 -20 15 15 18 41 16 48 -2z m-120 -59 c8 -6 12 -19 9 -30 -4 -17 -5
-17 -6 2 0 12 -8 24 -16 28 -8 3 -15 13 -14 23 0 14 2 15 6 3 4 -8 13 -20 21
-26z m32 21 c-10 -12 -16 -13 -26 -4 -20 16 -18 19 12 19 22 0 25 -2 14 -15z
m70 1 c-6 -8 -18 -12 -26 -9 -23 9 -16 23 12 23 22 0 24 -2 14 -14z m30 -6 c0
-11 -4 -20 -9 -20 -5 0 -7 9 -4 20 3 11 7 20 9 20 2 0 4 -9 4 -20z m-66 -16
c17 -7 22 -54 6 -54 -5 0 -9 10 -7 23 2 24 -23 31 -31 8 -3 -8 0 -11 7 -7 7 5
9 1 5 -8 -9 -24 -24 -19 -24 7 0 35 12 43 44 31z m-74 -40 c0 -15 -6 -24 -15
-24 -10 0 -15 10 -15 30 0 22 4 28 15 24 8 -4 15 -17 15 -30z m107 4 c-3 -7
-5 -2 -5 12 0 14 2 19 5 13 2 -7 2 -19 0 -25z m33 -3 c0 -14 -4 -25 -10 -25
-5 0 -10 11 -10 25 0 14 5 25 10 25 6 0 10 -11 10 -25z"/>
</g>
</svg>
